2.8Hzhigh3min_grf.mot
version=1
nRows=10
nColumns 19
inDegrees=yes
endheader
time	1_ground_force_vx	1_ground_force_vy	1_ground_force_vz	1_ground_force_px	1_ground_force_py	1_ground_force_pz	1_ground_torque_x	1_ground_torque_y	1_ground_torque_z	2_ground_force_vx	2_ground_force_vy	2_ground_force_vz	2_ground_force_px	2_ground_force_py	2_ground_force_pz	2_ground_torque_x	2_ground_torque_y	2_ground_torque_z
            0.005000	            5.827464	           12.786618	            3.158633	           -0.260785	            0.006302	           -0.424829	            0.133682	            0.293324	            0.072459	            2.376038	            3.512969	           -1.537159	           -0.308595	            0.005364	           -0.696006	           -0.601834	            0.150350	           -0.357359
            0.005500	            5.690669	           11.884280	            3.384389	           -0.253672	            0.006320	           -0.428790	            0.117444	            0.245268	            0.069847	            2.379361	            2.592227	           -1.540445	           -0.308595	            0.005364	           -0.696006	           -0.526355	            0.083646	           -0.131424
            0.006000	            5.644924	           11.343475	            3.382184	           -0.255976	            0.006262	           -0.415379	            0.044466	            0.089354	            0.026642	            2.425567	            2.776377	           -1.492880	           -0.308595	            0.005364	           -0.696006	           -0.507560	            0.074463	           -0.188017
            0.006500	            5.461277	           10.983498	            3.243525	           -0.250267	            0.006253	           -0.413149	            0.038965	            0.078366	            0.023142	            2.475076	            2.039953	           -1.495528	           -0.308595	            0.005364	           -0.696006	           -0.301065	            0.103903	           -0.282254
            0.007000	            5.140768	           10.081714	            3.332169	           -0.241818	            0.006196	           -0.399494	            0.034078	            0.066831	            0.022089	            2.290334	            1.302683	           -1.498076	           -0.308595	            0.005364	           -0.696006	           -0.545309	            0.112474	           -0.282117
            0.007500	            5.048857	            8.820623	            3.143562	           -0.233013	            0.005581	           -0.255695	            1.362745	           -0.587110	           -0.204753	            2.383493	            1.486165	           -1.215890	           -0.308595	            0.005364	           -0.696006	           -0.395009	            0.112882	           -0.244480
            0.008000	            5.094017	            8.821812	            2.868313	           -0.233013	            0.005581	           -0.255695	            1.356126	           -0.569339	           -0.033523	            2.148558	            1.669635	           -1.262062	           -0.308595	            0.005364	           -0.696006	           -0.319697	            0.065890	           -0.244681
            0.008500	            4.864041	            7.381411	            2.449995	           -0.233013	            0.005581	           -0.255695	            1.149221	           -0.569258	           -0.099125	            1.917235	            0.930020	           -0.654525	           -0.308595	            0.005364	           -0.696006	           -0.263606	            0.141648	           -0.225585
            0.009000	            4.772570	            5.578933	            2.396637	           -0.233013	            0.005581	           -0.255695	            1.096251	           -0.615932	           -0.009049	            2.011661	            0.745708	           -0.514438	           -0.308595	            0.005364	           -0.696006	           -0.282212	            0.094249	           -0.206895
            0.009500	            4.543697	            5.578299	            2.534773	           -0.233013	            0.005581	           -0.255695	            1.015215	           -0.560507	           -0.037182	            1.868555	            1.480957	           -0.277109	           -0.308595	            0.005364	           -0.696006	           -0.132084	            0.141921	           -0.169090
